<svg width="251" height="64" viewBox="0 0 251 64" fill="none" xmlns="http://www.w3.org/2000/svg">
<g clip-path="url(#clip0)">
<g filter="url(#filter0_d)">
<path d="M81.0781 35.9766V48H74.0469V13.875H87.3594C89.9219 13.875 92.1719 14.3438 94.1094 15.2812C96.0625 16.2188 97.5625 17.5547 98.6094 19.2891C99.6562 21.0078 100.18 22.9688 100.18 25.1719C100.18 28.5156 99.0312 31.1562 96.7344 33.0938C94.4531 35.0156 91.2891 35.9766 87.2422 35.9766H81.0781ZM81.0781 30.2812H87.3594C89.2188 30.2812 90.6328 29.8438 91.6016 28.9688C92.5859 28.0938 93.0781 26.8438 93.0781 25.2188C93.0781 23.5469 92.5859 22.1953 91.6016 21.1641C90.6172 20.1328 89.2578 19.6016 87.5234 19.5703H81.0781V30.2812ZM119 48C118.688 47.3906 118.461 46.6328 118.32 45.7266C116.68 47.5547 114.547 48.4688 111.922 48.4688C109.438 48.4688 107.375 47.75 105.734 46.3125C104.109 44.875 103.297 43.0625 103.297 40.875C103.297 38.1875 104.289 36.125 106.273 34.6875C108.273 33.25 111.156 32.5234 114.922 32.5078H118.039V31.0547C118.039 29.8828 117.734 28.9453 117.125 28.2422C116.531 27.5391 115.586 27.1875 114.289 27.1875C113.148 27.1875 112.25 27.4609 111.594 28.0078C110.953 28.5547 110.633 29.3047 110.633 30.2578H103.859C103.859 28.7891 104.312 27.4297 105.219 26.1797C106.125 24.9297 107.406 23.9531 109.062 23.25C110.719 22.5312 112.578 22.1719 114.641 22.1719C117.766 22.1719 120.242 22.9609 122.07 24.5391C123.914 26.1016 124.836 28.3047 124.836 31.1484V42.1406C124.852 44.5469 125.188 46.3672 125.844 47.6016V48H119ZM113.398 43.2891C114.398 43.2891 115.32 43.0703 116.164 42.6328C117.008 42.1797 117.633 41.5781 118.039 40.8281V36.4688H115.508C112.117 36.4688 110.312 37.6406 110.094 39.9844L110.07 40.3828C110.07 41.2266 110.367 41.9219 110.961 42.4688C111.555 43.0156 112.367 43.2891 113.398 43.2891ZM136.273 22.6406L136.484 25.5703C138.297 23.3047 140.727 22.1719 143.773 22.1719C146.461 22.1719 148.461 22.9609 149.773 24.5391C151.086 26.1172 151.758 28.4766 151.789 31.6172V48H145.016V31.7812C145.016 30.3438 144.703 29.3047 144.078 28.6641C143.453 28.0078 142.414 27.6797 140.961 27.6797C139.055 27.6797 137.625 28.4922 136.672 30.1172V48H129.898V22.6406H136.273ZM155.891 35.1328C155.891 31.1797 156.773 28.0312 158.539 25.6875C160.32 23.3438 162.75 22.1719 165.828 22.1719C168.297 22.1719 170.336 23.0938 171.945 24.9375V12H178.742V48H172.625L172.297 45.3047C170.609 47.4141 168.438 48.4688 165.781 48.4688C162.797 48.4688 160.398 47.2969 158.586 44.9531C156.789 42.5938 155.891 39.3203 155.891 35.1328ZM162.664 35.625C162.664 38 163.078 39.8203 163.906 41.0859C164.734 42.3516 165.938 42.9844 167.516 42.9844C169.609 42.9844 171.086 42.1016 171.945 40.3359V30.3281C171.102 28.5625 169.641 27.6797 167.562 27.6797C164.297 27.6797 162.664 30.3281 162.664 35.625ZM182.938 35.0859C182.938 32.5703 183.422 30.3281 184.391 28.3594C185.359 26.3906 186.75 24.8672 188.562 23.7891C190.391 22.7109 192.508 22.1719 194.914 22.1719C198.336 22.1719 201.125 23.2188 203.281 25.3125C205.453 27.4062 206.664 30.25 206.914 33.8438L206.961 35.5781C206.961 39.4688 205.875 42.5938 203.703 44.9531C201.531 47.2969 198.617 48.4688 194.961 48.4688C191.305 48.4688 188.383 47.2969 186.195 44.9531C184.023 42.6094 182.938 39.4219 182.938 35.3906V35.0859ZM189.711 35.5781C189.711 37.9844 190.164 39.8281 191.07 41.1094C191.977 42.375 193.273 43.0078 194.961 43.0078C196.602 43.0078 197.883 42.3828 198.805 41.1328C199.727 39.8672 200.188 37.8516 200.188 35.0859C200.188 32.7266 199.727 30.8984 198.805 29.6016C197.883 28.3047 196.586 27.6562 194.914 27.6562C193.258 27.6562 191.977 28.3047 191.07 29.6016C190.164 30.8828 189.711 32.875 189.711 35.5781ZM225.383 28.9922C224.461 28.8672 223.648 28.8047 222.945 28.8047C220.383 28.8047 218.703 29.6719 217.906 31.4062V48H211.133V22.6406H217.531L217.719 25.6641C219.078 23.3359 220.961 22.1719 223.367 22.1719C224.117 22.1719 224.82 22.2734 225.477 22.4766L225.383 28.9922ZM242.656 48C242.344 47.3906 242.117 46.6328 241.977 45.7266C240.336 47.5547 238.203 48.4688 235.578 48.4688C233.094 48.4688 231.031 47.75 229.391 46.3125C227.766 44.875 226.953 43.0625 226.953 40.875C226.953 38.1875 227.945 36.125 229.93 34.6875C231.93 33.25 234.812 32.5234 238.578 32.5078H241.695V31.0547C241.695 29.8828 241.391 28.9453 240.781 28.2422C240.188 27.5391 239.242 27.1875 237.945 27.1875C236.805 27.1875 235.906 27.4609 235.25 28.0078C234.609 28.5547 234.289 29.3047 234.289 30.2578H227.516C227.516 28.7891 227.969 27.4297 228.875 26.1797C229.781 24.9297 231.062 23.9531 232.719 23.25C234.375 22.5312 236.234 22.1719 238.297 22.1719C241.422 22.1719 243.898 22.9609 245.727 24.5391C247.57 26.1016 248.492 28.3047 248.492 31.1484V42.1406C248.508 44.5469 248.844 46.3672 249.5 47.6016V48H242.656ZM237.055 43.2891C238.055 43.2891 238.977 43.0703 239.82 42.6328C240.664 42.1797 241.289 41.5781 241.695 40.8281V36.4688H239.164C235.773 36.4688 233.969 37.6406 233.75 39.9844L233.727 40.3828C233.727 41.2266 234.023 41.9219 234.617 42.4688C235.211 43.0156 236.023 43.2891 237.055 43.2891Z" fill="#112D4E"/>
</g>
<g clip-path="url(#clip1)">
<path d="M14.7502 46.2499C12.2032 41.8877 10.1475 37.4161 10.1475 32.0004C10.1474 17.0408 21.3798 4.62909 35.833 2.74862C34.6051 2.58925 33.3539 2.50438 32.0834 2.50088C15.8031 2.45575 2.50027 15.7201 2.5004 32.0004C2.5004 37.4162 3.95987 42.491 6.50694 46.8531C7.77029 49.0168 10.541 49.754 12.7337 48.5415C13.4828 48.1272 14.3349 47.6302 15.2813 47.0401C15.0905 46.7926 14.9127 46.5283 14.7502 46.2499V46.2499Z" fill="#C6E1F2"/>
<path d="M52.0684 7.07505C49.2966 4.84072 46.2001 3.09763 42.8652 1.89378C39.4148 0.648425 35.6991 0.0115621 32.0002 0.00131226C23.491 0.00131226 15.4744 3.32312 9.42086 9.35988C3.34611 15.4179 0.000546393 23.4586 0.00067139 32.0012C0.00067139 37.5016 1.42039 42.9277 4.10634 47.6928C5.47706 50.1245 8.01776 51.4922 10.6338 51.4922C11.8812 51.4922 13.146 51.1811 14.3088 50.526C18.8294 47.979 26.0268 43.1345 34.6427 34.5185C35.6191 33.5422 35.6191 31.9593 34.6427 30.9831C33.6664 30.0069 32.0835 30.0067 31.1073 30.9831C22.8917 39.1985 16.103 43.7762 11.8547 46.1697C10.6548 46.8456 9.13274 46.4275 8.46201 45.2374C6.19755 41.2201 5.0007 36.6431 5.00057 32.0009C5.00057 24.7966 7.82414 18.0132 12.9513 12.9001C18.0612 7.80416 24.8226 5.00109 32 5.00109C38.205 5.01834 44.1096 7.08155 48.9305 10.9676C50.0053 11.834 51.579 11.6651 52.4458 10.5901C53.3122 9.51538 53.1433 7.94153 52.0684 7.07505Z" fill="#112D4E"/>
<path d="M11.0816 38.065C11.5686 38.756 12.3418 39.1251 13.1273 39.1251C13.6248 39.1251 14.1275 38.9769 14.5651 38.6686C18.7393 35.7273 23.0723 32.0194 27.4439 27.6478C32.4579 22.6338 36.4067 18.058 39.1806 14.0476C39.966 12.9121 39.6822 11.3549 38.5468 10.5694C37.4113 9.78406 35.8539 10.0678 35.0686 11.2033C32.4651 14.9671 28.7103 19.3104 23.9084 24.1123C19.7386 28.2821 15.6261 31.8044 11.6852 34.5813C10.5566 35.3768 10.2862 36.9364 11.0816 38.065Z" fill="#00ADB5"/>
<path d="M63.7075 27.6643C63.5219 26.2961 62.2624 25.3371 60.8943 25.523C59.5262 25.7085 58.5675 26.9681 58.753 28.3362C58.9165 29.5412 58.9992 30.7739 58.9992 32.0001C58.9992 46.8877 46.8873 58.9996 31.9998 58.9996C30.6969 58.9996 29.3097 58.9726 27.9925 58.7767C26.6267 58.574 25.3551 59.5163 25.152 60.8819C24.949 62.2477 25.8915 63.5193 27.2572 63.7224C28.8958 63.966 30.5049 63.9995 31.9998 63.9995C40.5471 63.9995 48.5828 60.6709 54.6268 54.6272C60.6707 48.5833 63.9991 40.5476 63.9991 32.0001C63.9991 30.55 63.901 29.0912 63.7075 27.6643V27.6643Z" fill="#112D4E"/>
<path d="M13.8764 25.8679C14.4491 25.8679 15.0248 25.6721 15.4952 25.2718C17.1972 23.8237 18.928 22.2215 20.6399 20.5095C22.6732 18.4762 24.2683 16.7614 25.66 15.1132C26.5506 14.0582 26.4176 12.481 25.3626 11.5903C24.3077 10.6997 22.7303 10.8327 21.8397 11.8877C20.5407 13.4261 19.0361 15.0424 17.1044 16.9741C15.487 18.5915 13.8554 20.1021 12.255 21.4639C11.2034 22.3586 11.0764 23.9363 11.9712 24.9879C12.4658 25.5691 13.1688 25.8679 13.8764 25.8679V25.8679Z" fill="#112D4E"/>
<path d="M6.4608 63.9999C4.42447 63.9999 2.8105 63.4142 1.64389 62.2476C0.221673 60.8255 -0.277943 58.7624 0.159174 56.1157C0.384044 54.7535 1.67052 53.8313 3.03312 54.0565C4.39534 54.2815 5.3172 55.5682 5.09233 56.9304C4.92633 57.9351 5.01658 58.5491 5.17945 58.7121C5.3807 58.9134 6.26805 59.1914 8.18539 58.8036C10.3294 58.3699 13.1097 57.2445 16.2255 55.5492C23.1923 51.7585 31.0501 45.65 38.3513 38.3489C45.6524 31.0477 51.7609 23.19 55.5516 16.2231C57.2469 13.1073 58.3722 10.3271 58.8059 8.183C59.1938 6.26554 58.9156 5.37843 58.7145 5.17718C58.6315 5.09431 58.1807 4.91031 57.1026 5.05281C55.7335 5.2338 54.4775 4.27082 54.2965 2.90198C54.1155 1.53313 55.0785 0.276903 56.4473 0.0959061C58.9426 -0.233962 60.8947 0.286153 62.2501 1.64175C63.8949 3.28659 64.385 5.82092 63.7067 9.17435C63.1678 11.8383 61.9017 15.0139 59.9436 18.6128C55.9302 25.989 49.5176 34.2537 41.8869 41.8845C34.2561 49.5152 25.9913 55.9278 18.6151 59.9412C15.0161 61.8994 11.8406 63.1654 9.17662 63.7043C8.20152 63.9015 7.29566 63.9999 6.4608 63.9999Z" fill="#00ADB5"/>
</g>
</g>
<defs>
<filter id="filter0_d" x="74.0469" y="12" width="177.453" height="38.4688" filterUnits="userSpaceOnUse" color-interpolation-filters="sRGB">
<feFlood flood-opacity="0" result="BackgroundImageFix"/>
<feColorMatrix in="SourceAlpha" type="matrix" values="0 0 0 0 0 0 0 0 0 0 0 0 0 0 0 0 0 0 127 0"/>
<feOffset dx="1" dy="1"/>
<feGaussianBlur stdDeviation="0.5"/>
<feColorMatrix type="matrix" values="0 0 0 0 0 0 0 0 0 0 0 0 0 0 0 0 0 0 0.2 0"/>
<feBlend mode="darken" in2="BackgroundImageFix" result="effect1_dropShadow"/>
<feBlend mode="normal" in="SourceGraphic" in2="effect1_dropShadow" result="shape"/>
</filter>
<clipPath id="clip0">
<rect width="251" height="64" fill="white"/>
</clipPath>
<clipPath id="clip1">
<rect width="64" height="64" fill="white"/>
</clipPath>
</defs>
</svg>
